{"title":"Alpha And Omega-AC3-DVDRip 2010 TBS","uid":6064761,"size":1568191513,"categoryP":"video","categoryS":"movies","magnet":"?xt=urn:btih:d30ecfd997b35f7d7abe87618a4a38e3225af4d9&amp;dn=Alpha+And+Omega-AC3-DVDRip+2010+TBS&amp;tr=udp%3A%2F%2Ftracker.openbittorrent.com%3A80&amp;tr=udp%3A%2F%2Fopen.demonii.com%3A1337&amp;tr=udp%3A%2F%2Ftracker.coppersurfer.tk%3A6969&amp;tr=udp%3A%2F%2Fexodus.desync.com%3A6969","seeders":0,"leechers":0,"uploader":"FatFreddy30","files":-1,"time":1293299813,"description":"Two young wolves at opposite ends of their pack's social order are thrown together into a foreign land and need each other to return home, but love complicates everything...\n &lt;a href=&quot;\nhttp://www.imdb.com/title/tt1213012/&quot; rel=&quot;nofollow&quot; target=&quot;_NEW&quot;&gt;\nhttp://www.imdb.com/title/tt1213012/&lt;/a&gt;\n\nSubs (srt) : Dutch, English.\n\nKate en Humphrey zijn twee jonge wolven die een fijn leventje hebben bij hun ouders en roedel in het bos. Kate is een erg aanwezige wolvin die alles tot in de puntjes geregeld wil hebben. Niets ontgaat haar nauwkeurige visie. Humphrey leeft meer van moment tot moment en doet het vooral rustig aan. Dan worden de twee jonge wolven gevangen genomen door parkwachters en ver van hun vertrouwde omgeving vandaan gehaald. Kate en Humphrey ontsnappen, maar staan er plots helemaal alleen voor..\n &lt;a href=&quot;\nhttp://www.moviemeter.nl/film/52124&quot; rel=&quot;nofollow&quot; target=&quot;_NEW&quot;&gt;\nhttp://www.moviemeter.nl/film/52124&lt;/a&gt;\n\nOndertitels (srt) : Engels, Nederlands.\n\nGeneral\nComplete name                    : Alpha And Omega-AC3-DVDRip 2010 TBS\\Alpha And Omega-AC3-DVDRip 2010 TBS.avi\nFormat                           : AVI\nFormat/Info                      : Audio Video Interleave\nFile size                        : 1.46 GiB\nDuration                         : 1h 27mn\nOverall bit rate                 : 2 377 Kbps\nWriting application              : VirtualDubMod 1.5.4.1 (build 2178/release)\nWriting library                  : VirtualDubMod build 2178/release\nSource                           : Alpha.And.Omega.DVDR-Replica\n\nVideo\nID                               : 0\nFormat                           : MPEG-4 Visual\nFormat profile                   : Simple@L3\nFormat settings, BVOP            : No\nFormat settings, QPel            : No\nFormat settings, GMC             : No warppoints\nFormat settings, Matrix          : Default (H.263)\nCodec ID                         : XVID\nCodec ID/Hint                    : XviD\nDuration                         : 1h 27mn\nBit rate                         : 1 920 Kbps\nWidth                            : 720 pixels\nHeight                           : 400 pixels\nDisplay aspect ratio             : 16:9\nFrame rate                       : 23.976 fps\nResolution                       : 8 bits\nColorimetry                      : 4:2:0\nScan type                        : Progressive\nBits/(Pixel*Frame)               : 0.278\nStream size                      : 1.18 GiB (81%)\nWriting library                  : XviD 1.1.2 (UTC 2006-11-01)\n\nAudio\nID                               : 1\nFormat                           : AC-3\nFormat/Info                      : Audio Coding 3\nCodec ID                         : 2000\nDuration                         : 1h 27mn\nBit rate mode                    : Constant\nBit rate                         : 448 Kbps\nChannel(s)                       : 6 channels\nChannel positions                : Front: L C R, Surround: L R, LFE\nSampling rate                    : 48.0 KHz\nStream size                      : 282 MiB (19%)\nAlignment                        : Split accross interleaves\nInterleave, duration             : 42 ms (1.00 video frame)\nInterleave, preload duration     : 500 ms\n\nThanks to Unique Team Releases.\n\nBlackbeard  TBS\n\nEnjoy..","torrent":{"xt":"urn:btih:d30ecfd997b35f7d7abe87618a4a38e3225af4d9","amp;dn":"Alpha+And+Omega-AC3-DVDRip+2010+TBS","amp;tr":["udp%3A%2F%2Ftracker.openbittorrent.com%3A80","udp%3A%2F%2Fopen.demonii.com%3A1337","udp%3A%2F%2Ftracker.coppersurfer.tk%3A6969","udp%3A%2F%2Fexodus.desync.com%3A6969"],"infoHash":"d30ecfd997b35f7d7abe87618a4a38e3225af4d9","infoHashBuffer":{"type":"Buffer","data":[211,14,207,217,151,179,95,125,122,190,135,97,138,74,56,227,34,90,244,217]},"announce":[],"urlList":[]}}